<?xml version="1.0" encoding="iso-8859-1"?>
<!-- Generator: Adobe Illustrator 19.0.0, SVG Export Plug-In . SVG Version: 6.00 Build 0)  -->
<svg version="1.1" id="Capa_1" xmlns="http://www.w3.org/2000/svg" xmlns:xlink="http://www.w3.org/1999/xlink" x="0px" y="0px"
	 viewBox="0 0 512 512" style="enable-background:new 0 0 512 512;" xml:space="preserve">
<g>
	<g>
		<g>
			<path d="M256,0C114.844,0,0,114.844,0,256s114.844,256,256,256s256-114.844,256-256S397.156,0,256,0z M256,490.667
				C126.604,490.667,21.333,385.396,21.333,256S126.604,21.333,256,21.333S490.667,126.604,490.667,256S385.396,490.667,256,490.667
				z"/>
			<path d="M384,170.667h-21.333v-53.333c0-5.896-4.771-10.667-10.667-10.667H160c-5.896,0-10.667,4.771-10.667,10.667v53.333H128
				c-23.531,0-42.667,19.135-42.667,42.667v64C85.333,300.865,104.469,320,128,320h21.333v74.667
				c0,5.896,4.771,10.667,10.667,10.667h192c5.896,0,10.667-4.771,10.667-10.667V320H384c23.531,0,42.667-19.135,42.667-42.667v-64
				C426.667,189.802,407.531,170.667,384,170.667z M170.667,128h170.667v42.667H170.667V128z M341.333,384H170.667V277.333h170.667
				V384z M405.333,277.333c0,11.76-9.573,21.333-21.333,21.333h-21.333v-21.333h10.667c5.896,0,10.667-4.771,10.667-10.667
				c0-5.896-4.771-10.667-10.667-10.667H138.667c-5.896,0-10.667,4.771-10.667,10.667c0,5.896,4.771,10.667,10.667,10.667h10.667
				v21.333H128c-11.76,0-21.333-9.573-21.333-21.333v-64c0-11.76,9.573-21.333,21.333-21.333h256
				c11.76,0,21.333,9.573,21.333,21.333V277.333z"/>
			<path d="M202.667,320h106.667c5.896,0,10.667-4.771,10.667-10.667c0-5.896-4.771-10.667-10.667-10.667H202.667
				c-5.896,0-10.667,4.771-10.667,10.667C192,315.229,196.771,320,202.667,320z"/>
			<path d="M202.667,362.667h106.667c5.896,0,10.667-4.771,10.667-10.667c0-5.896-4.771-10.667-10.667-10.667H202.667
				c-5.896,0-10.667,4.771-10.667,10.667C192,357.896,196.771,362.667,202.667,362.667z"/>
			<circle cx="373.333" cy="224" r="10.667"/>
		</g>
	</g>
</g>
<g>
</g>
<g>
</g>
<g>
</g>
<g>
</g>
<g>
</g>
<g>
</g>
<g>
</g>
<g>
</g>
<g>
</g>
<g>
</g>
<g>
</g>
<g>
</g>
<g>
</g>
<g>
</g>
<g>
</g>
</svg>
